<svg id="图层_1" data-name="图层 1" xmlns="http://www.w3.org/2000/svg" xmlns:xlink="http://www.w3.org/1999/xlink" viewBox="0 0 1280 1024"><defs><style>.cls-1,.cls-14,.cls-15,.cls-16,.cls-19{fill:none;}.cls-2{fill:#4d51a3;}.cls-3{fill:#a3d08d;}.cls-4{fill:#e5d693;}.cls-5{fill:#fbfdfb;}.cls-6{opacity:0.96;isolation:isolate;}.cls-7{clip-path:url(#clip-path);}.cls-8{clip-path:url(#clip-path-2);}.cls-9{clip-path:url(#clip-path-3);}.cls-10{clip-path:url(#clip-path-4);}.cls-11{clip-path:url(#clip-path-5);}.cls-12{fill:#fff;}.cls-13{fill:#f04e25;}.cls-14{stroke:#f04e25;stroke-width:1.72px;}.cls-14,.cls-15,.cls-16,.cls-19{stroke-linecap:round;}.cls-15{stroke:#fff;stroke-width:0.74px;}.cls-16,.cls-19{stroke:#834f24;}.cls-16{stroke-width:0.66px;}.cls-17{fill:#c98633;}.cls-18{fill:url(#未命名的渐变_15);}.cls-19{stroke-width:3.17px;}.cls-20{font-size:125.5px;}.cls-20,.cls-22{fill:#f498b9;}.cls-20,.cls-21{font-family:Helvetica, Helvetica;}.cls-21{font-size:232.94px;fill:#4eb4d3;}</style><clipPath id="clip-path"><rect class="cls-1" x="408.29" y="249.96" width="100.25" height="44.23"/></clipPath><clipPath id="clip-path-2"><rect class="cls-1" x="378.8" y="314.83" width="188.71" height="44.23"/></clipPath><clipPath id="clip-path-3"><rect class="cls-1" x="328.67" y="736.48" width="103.2" height="44.23"/></clipPath><clipPath id="clip-path-4"><rect class="cls-1" x="785.71" y="347.27" width="103.2" height="44.23"/></clipPath><clipPath id="clip-path-5"><rect class="cls-1" x="361.11" y="795.46" width="188.71" height="44.23"/></clipPath><linearGradient id="未命名的渐变_15" x1="871.44" y1="3452.46" x2="901.39" y2="3452.46" gradientTransform="matrix(1, 0, 0, -1, -149.7, 3730)" gradientUnits="userSpaceOnUse"><stop offset="0" stop-color="#462511"/><stop offset="0" stop-color="#462611"/><stop offset="0.27" stop-color="#61391f"/><stop offset="0.6" stop-color="#824e2a"/><stop offset="0.85" stop-color="#985c2f"/><stop offset="1" stop-color="#a06131"/></linearGradient></defs><title>6</title><path class="cls-2" d="M1039.88,572.84a352.07,352.07,0,1,1-6.76-68.68A351.22,351.22,0,0,1,1039.88,572.84Z"/><path class="cls-3" d="M400.92,368.79h218.2a15,15,0,0,1,0,30.08H485a15,15,0,0,1-2.36,28.6h13a15,15,0,1,1,0,30.08H474a14,14,0,0,1,1.77,7.08,15.85,15.85,0,0,1-2.36,8.26,16.07,16.07,0,0,1,1.47,6.49,17.51,17.51,0,0,1-2.06,7.67h14.45a15,15,0,1,1,0,30.08H425.09a16.28,16.28,0,0,1,4.72,11.5v2.95a16.09,16.09,0,0,1-7.67,13.86h67.23a15,15,0,1,1,0,30.08H432.76a15,15,0,0,1-2.06,28.9h65.46a15,15,0,1,1,0,30.08h-156C339.88,635.35,312.46,487.33,400.92,368.79Z"/><path class="cls-3" d="M653.61,525.07H805.47a15.1,15.1,0,0,1,15,15v.3a15.1,15.1,0,0,1-15,15H653.61a15.1,15.1,0,0,1-15-15v-.3C638.87,531.85,645.36,525.07,653.61,525.07Z"/><path class="cls-3" d="M637.69,550.43H789.54a15.1,15.1,0,0,1,15,15v.29a15.1,15.1,0,0,1-15,15H637.69a15.1,15.1,0,0,1-15-15v-.29A14.91,14.91,0,0,1,637.69,550.43Z"/><rect class="cls-2" x="532.13" y="653.04" width="133.87" height="29.78" rx="14.74" ry="14.74"/><path class="cls-4" d="M826.4,574.9a15.1,15.1,0,0,0-15-15h-227a15.1,15.1,0,0,0-15,15,15.35,15.35,0,0,0,10.32,14.45,15.11,15.11,0,0,0,3.54,29.78h20.64A14.51,14.51,0,0,0,593.17,633v.88a14.79,14.79,0,0,0,14.74,14.74H760.35a14.79,14.79,0,0,0,14.74-14.74V633a14.51,14.51,0,0,0-10.62-13.86h45.7a15.1,15.1,0,0,0,15-15,15.35,15.35,0,0,0-10.32-14.45A15.48,15.48,0,0,0,826.4,574.9Z"/><path class="cls-4" d="M834.36,529.49h-8.85a15.26,15.26,0,0,0,10.32-14.15,15.06,15.06,0,0,0-13.56-15,15.14,15.14,0,0,0-2.36-30.08H798.39a15.34,15.34,0,0,0,4.42-11.2V448.11A14,14,0,0,0,801,441h.29a15,15,0,1,0,0-30.08H723.49a15.1,15.1,0,0,0-15,15,14.93,14.93,0,0,0,12.09,14.74,16,16,0,0,0-1.77,7.37V459a16.63,16.63,0,0,0,4.42,11.2H656a15.1,15.1,0,0,0-15,15A14.91,14.91,0,0,0,653.32,500h-6.19a15.1,15.1,0,0,0-15,15,14.87,14.87,0,0,0,10.32,14.15h-34.5a15,15,0,1,0,0,30.08H835a15.1,15.1,0,0,0,15-15A15.78,15.78,0,0,0,834.36,529.49Z"/><path class="cls-4" d="M748,648.62H636.21a12.59,12.59,0,0,0-12.68,12.68V666a12.59,12.59,0,0,0,12.68,12.68H748A12.59,12.59,0,0,0,760.65,666v-4.72A12.77,12.77,0,0,0,748,648.62Z"/><path class="cls-5" d="M597.29,232.57a14.57,14.57,0,0,0,8.85,4.13,10,10,0,0,0-.29,2.95v18.28a13.2,13.2,0,0,0,1.18,5.9H536.26a15,15,0,1,0,0,30.08h269.5a15,15,0,1,0,0-30.08H750.33a13.2,13.2,0,0,0,1.18-5.9V239.64a10,10,0,0,0-.29-2.95h8.85a14.54,14.54,0,0,0,12.09-6.19s-91.7-26.24-174,3.54"/><rect class="cls-2" x="726.44" y="236.99" width="63.4" height="29.78" rx="14.74" ry="14.74"/><rect class="cls-2" x="583.14" y="236.99" width="63.4" height="29.78" rx="14.74" ry="14.74"/><path class="cls-2" d="M901,471.4H797.21a15.1,15.1,0,0,1-15-15v-.3a15.1,15.1,0,0,1,15-15H901a15.1,15.1,0,0,1,15,15v.3A14.91,14.91,0,0,1,901,471.4Z"/><path class="cls-2" d="M662.46,529.2H557.19a14.47,14.47,0,0,1-14.45-14.45v-.29A14.47,14.47,0,0,1,557.19,500H662.46a14.47,14.47,0,0,1,14.45,14.45v.29A14.29,14.29,0,0,1,662.46,529.2Z"/><path class="cls-2" d="M906.31,529.2H801.93a14.6,14.6,0,0,1-14.74-14.74v-.3a14.6,14.6,0,0,1,14.74-14.74H906.31a14.6,14.6,0,0,1,14.74,14.74v.3A14.79,14.79,0,0,1,906.31,529.2Z"/><path class="cls-2" d="M856.48,589.64H752.1a14.6,14.6,0,0,1-14.74-14.74v-.59a14.6,14.6,0,0,1,14.74-14.74H856.48a14.6,14.6,0,0,1,14.74,14.74v.29A14.85,14.85,0,0,1,856.48,589.64Z"/><path class="cls-2" d="M837,650.38H732.63a14.6,14.6,0,0,1-14.74-14.74v-.29a14.6,14.6,0,0,1,14.74-14.74H837a14.6,14.6,0,0,1,14.74,14.74v.29A14.79,14.79,0,0,1,837,650.38Z"/><path class="cls-2" d="M649.48,648.91H545.1a14.6,14.6,0,0,1-14.74-14.74v-.29a14.6,14.6,0,0,1,14.74-14.74H649.48a14.6,14.6,0,0,1,14.74,14.74v.29A14.79,14.79,0,0,1,649.48,648.91Z"/><path class="cls-2" d="M607.32,589.35H558.08a14.6,14.6,0,0,1-14.74-14.74v-.29a14.6,14.6,0,0,1,14.74-14.74h49.24a14.6,14.6,0,0,1,14.74,14.74v.29C622.36,582.86,615.57,589.35,607.32,589.35Z"/><rect class="cls-2" x="601.72" y="440.15" width="133.87" height="29.78" rx="14.74" ry="14.74"/><path class="cls-2" d="M518,546H413.6a14.6,14.6,0,0,1-14.74-14.74V531a14.6,14.6,0,0,1,14.74-14.74H518A14.6,14.6,0,0,1,532.72,531v.3A14.79,14.79,0,0,1,518,546Z"/><rect class="cls-2" x="403.86" y="576.37" width="133.87" height="29.78" rx="14.74" ry="14.74"/><rect class="cls-2" x="455.47" y="457.25" width="133.87" height="29.78" rx="14.74" ry="14.74"/><path class="cls-2" d="M630.61,428.94H391.48a14.6,14.6,0,0,1-14.74-14.74v-.3a14.6,14.6,0,0,1,14.74-14.74H630.61a14.6,14.6,0,0,1,14.74,14.74v.3A14.79,14.79,0,0,1,630.61,428.94Z"/><path class="cls-3" d="M947.88,817H755.34a15,15,0,1,1,0-30.08H889.5a15,15,0,0,1,2.36-28.6h-13a15,15,0,1,1,0-30.08h21.82a14,14,0,0,1-1.77-7.08,15.85,15.85,0,0,1,2.36-8.26,16.07,16.07,0,0,1-1.47-6.49,17.51,17.51,0,0,1,2.06-7.67H887.44a15,15,0,0,1,0-30.08h62.22a16.28,16.28,0,0,1-4.72-11.5v-2.95a16.09,16.09,0,0,1,7.67-13.86H885.37a15,15,0,0,1,0-30.08H942a15,15,0,0,1,2.06-28.9H878.59a15,15,0,0,1,0-30.08h109.1a15.13,15.13,0,0,1-11.2-14.45,14.62,14.62,0,0,1,11.2-14.45H923.11a15,15,0,0,1,0-30.08h51a14.28,14.28,0,0,1-2.06-7.67,15.75,15.75,0,0,1,7.67-13.27,23.43,23.43,0,0,1-1.77-6.49H957.32a15,15,0,0,1,0-30.08h55.43C1012.75,433.66,1108.29,631.22,947.88,817Z"/><rect class="cls-2" x="837.31" y="639.77" width="133.87" height="29.78" rx="14.74" ry="14.74"/><path class="cls-2" d="M847,579.91H951.42a14.6,14.6,0,0,1,14.74,14.74v.3a14.6,14.6,0,0,1-14.74,14.74H847A14.6,14.6,0,0,1,832.3,595v-.3A14.79,14.79,0,0,1,847,579.91Z"/><path class="cls-2" d="M891.56,520.65H995.95a14.6,14.6,0,0,1,14.74,14.74v.3a14.6,14.6,0,0,1-14.74,14.74H891.56a14.6,14.6,0,0,1-14.74-14.74v-.3A14.79,14.79,0,0,1,891.56,520.65Z"/><path class="cls-2" d="M893.92,463.44H998.3A14.6,14.6,0,0,1,1013,478.19v.3a14.6,14.6,0,0,1-14.74,14.74H893.92a14.6,14.6,0,0,1-14.74-14.74v-.3A14.79,14.79,0,0,1,893.92,463.44Z"/><rect class="cls-2" x="780.7" y="699.04" width="133.87" height="29.78" rx="14.74" ry="14.74"/><rect class="cls-2" x="789.54" y="757.12" width="182.22" height="29.78" rx="14.74" ry="14.74"/><g class="cls-6"><g class="cls-7"><path class="cls-5" d="M430.7,252h-1.47a20.35,20.35,0,0,0,0,40.69H487A20.35,20.35,0,0,0,487,252H445.73"/></g></g><g class="cls-6"><g class="cls-8"><path class="cls-5" d="M402.39,317.19h-1.47a20.35,20.35,0,0,0,0,40.69h143.6a20.35,20.35,0,0,0,0-40.69H417.43"/></g></g><g class="cls-6"><g class="cls-9"><path class="cls-5" d="M353.15,737.37h-1.47a20.35,20.35,0,0,0,0,40.69h57.79a20.35,20.35,0,0,0,0-40.69H368.19"/></g></g><g class="cls-6"><g class="cls-10"><path class="cls-5" d="M809.89,348.74h-1.47a20.35,20.35,0,0,0,0,40.69h57.79a20.35,20.35,0,0,0,0-40.69H824.93"/></g></g><g class="cls-6"><g class="cls-11"><path class="cls-5" d="M385.29,796.64h-1.47a20.35,20.35,0,0,0,0,40.69h143.3a20.35,20.35,0,0,0,0-40.69H400"/></g></g><path class="cls-12" d="M833.48,153.84S865.32,155,867.68,186c0,0-15,44.23-33.32,50.42l-13.86-.88s-30.37-28.31-20.05-63.69c0,0,10.61-19.17,33-18"/><path class="cls-13" d="M832,154.13s-33.61-2.06-37.74,29.19c0,0-3.54,20.94,25.95,51.9l1.18.29s-26.54-31.25-21.52-57.2c0,0,5-23.59,32.14-24.18"/><path class="cls-13" d="M832,154.13s-20.64,8.26-6.49,81.68h-2.06s-35.38-67.82,6.78-81.68"/><path class="cls-13" d="M835,154.43s33.61,2.06,33.91,33.61c0,0,1.18,21.23-32.14,48.06h-1.18s30.37-27.72,28.31-54c0,0-2.06-23.88-28.9-27.72"/><path class="cls-13" d="M835,154.13s19.46,10.61-3.54,82h2.06s43.64-62.8,3.54-82"/><line class="cls-14" x1="820.21" y1="236.11" x2="835.84" y2="236.99"/><line class="cls-15" x1="820.5" y1="237.28" x2="816.37" y2="265.3"/><line class="cls-15" x1="835.25" y1="238.17" x2="835.54" y2="266.48"/><line class="cls-15" x1="827.87" y1="237.58" x2="826.11" y2="266.77"/><path class="cls-16" d="M812,268.83s.29,2.65,2.06,2.65c2.06,0,2.95-2.95,2.95-2.95s1.47,3.24,4.42,3.24c2.95.3,4.72-2.95,4.72-2.95s1.77,3.24,4.13,3.24,4.13-2.95,4.13-2.95,1.18,3.54,2.36,3.54,2.95-2.65,2.95-3.83"/><path class="cls-17" d="M816.67,268.83s-2.06,1.77-1.77,2.95a2.19,2.19,0,0,0,1.77,1.77c1.18,0,3.54-2.06,0-4.72"/><polygon class="cls-17" points="816.97 269.13 816.08 267.95 817.85 267.95 816.97 269.13"/><path class="cls-17" d="M825.22,269.42s-2.06,1.77-1.77,2.95a2.19,2.19,0,0,0,1.77,1.77c1.18,0,3.54-2.36,0-4.72"/><polygon class="cls-17" points="825.52 269.72 824.63 268.25 826.4 268.54 825.52 269.72"/><path class="cls-17" d="M833.18,269.72s-2.06,1.77-1.77,2.95a2.19,2.19,0,0,0,1.77,1.77c1.18,0,3.54-2.06,0-4.72"/><polygon class="cls-17" points="833.48 270.31 832.59 268.83 834.36 268.83 833.48 270.31"/><path class="cls-18" d="M841.73,266.18l-.88,15c-.29,6.19-7.37,10.91-15.63,10.62-8.26-.59-14.74-6.19-14.15-12.38l.88-16.22"/><line class="cls-19" x1="812.25" y1="263.23" x2="841.73" y2="265"/><path class="cls-12" d="M1209.72,215.17H1006.86c-50.72,0-92.29,41.57-92.29,92.29,0,49.24,38.92,89.64,87.57,92.29v42.17s33-21.52,41.87-42.17h165.71"/><text class="cls-20" transform="translate(1039.61 357.53)">???</text><path class="cls-12" d="M78,488.8c0-50.72,41.58-92.29,92.29-92.29H373.2c50.72,0,92.29,41.57,92.29,92.29,0,49.24-38.92,89.64-87.57,92.29v42.17s-33-21.52-41.87-42.17H170.33C119.62,581.09,78,539.52,78,488.8"/><text class="cls-21" transform="matrix(-1, 0, 0, 1, 348.7, 507.25)">...</text><path class="cls-12" d="M1221.51,587.28c-61.63-45.41-148.32-32.14-193.72,29.49a137.44,137.44,0,0,0-23.88,110.87s-12.09,18.58-32.43,19.76c0,0,24.18,23.29,45.41,16.22"/><path class="cls-12" d="M1016.88,763.61a136.2,136.2,0,0,0,40.4,46.88C1118.9,855.9,1205.59,842.63,1251,781"/><path class="cls-22" d="M1137.77,655.1a38.31,38.31,0,0,0-7.67-9.14,32.67,32.67,0,0,0-9.44-6.19,63.31,63.31,0,0,0-8-2.95,47.32,47.32,0,0,0-13-1.18,59.14,59.14,0,0,0-7.08,1.18l-6.19,1.77a38.45,38.45,0,0,0-5,2.36,33.41,33.41,0,0,0-8.85,7.08,50.27,50.27,0,0,0-6.78,8.85,25,25,0,0,0-2.65,6.49c-2.36,5.9-2.65,12.09-2.06,18.28.29,3.24,1.18,6.19,1.47,9.14.88,2.65,1.77,5.6,2.95,8.26.88,2.06,1.77,4.13,2.65,5.9a36,36,0,0,0,3.54,5.6c2.36,3.24,4.72,6.49,7.08,9.44a65.64,65.64,0,0,0,7.67,8c2.95,2.65,5.9,5.31,8.85,7.67,2.36,2.06,5,3.83,7.37,5.6,2.06,1.47,4.13,2.95,6.49,4.42s5,2.95,7.67,4.72c2.06,1.18,4.42,2.65,6.49,3.83,1.77.88,3.83,1.77,5.6,2.65,2.06.88,4.13,2.06,6.19,2.95"/><path class="cls-5" d="M772.15,911.34a13.53,13.53,0,0,0-8.26-3.83,8.17,8.17,0,0,0,.29-2.65V888a12,12,0,0,0-1.18-5.6h64.87a13.86,13.86,0,0,0,0-27.72H580.78a13.86,13.86,0,0,0,0,27.72h51a17.24,17.24,0,0,0-1.18,5.6v16.81a8.17,8.17,0,0,0,.29,2.65h-8a13.81,13.81,0,0,0-10.91,5.6s84,23.88,159.22-3.24"/><path class="cls-2" d="M640,909.86h-31a13.56,13.56,0,1,1,0-27.13h31a13.53,13.53,0,0,1,13.56,13.56C653.91,903.67,647.71,909.86,640,909.86Z"/><path class="cls-2" d="M771.26,909.86h-31a13.56,13.56,0,1,1,0-27.13h31a13.53,13.53,0,0,1,13.56,13.56C785.12,903.67,778.93,909.86,771.26,909.86Z"/></svg>