<svg id="图层_1" data-name="图层 1" xmlns="http://www.w3.org/2000/svg" xmlns:xlink="http://www.w3.org/1999/xlink" viewBox="0 0 640 1024"><defs><style>.cls-1{fill:none;}.cls-2{fill:url(#未命名的渐变_86);}.cls-3{fill:url(#未命名的渐变_87);}.cls-4{opacity:0.68;isolation:isolate;}.cls-5{clip-path:url(#clip-path);}.cls-6{fill:#442325;}.cls-7{fill:#f3f4f5;}.cls-8{fill:url(#未命名的渐变_86-2);}.cls-9{fill:url(#未命名的渐变_87-2);}.cls-10{clip-path:url(#clip-path-2);}.cls-11{fill:url(#未命名的渐变_86-3);}.cls-12{fill:url(#未命名的渐变_87-3);}.cls-13{clip-path:url(#clip-path-3);}.cls-14{fill:url(#未命名的渐变_86-4);}.cls-15{fill:url(#未命名的渐变_87-4);}.cls-16{clip-path:url(#clip-path-4);}</style><linearGradient id="未命名的渐变_86" x1="1775.58" y1="2199.55" x2="1888.66" y2="2199.55" gradientTransform="matrix(-1, 0, 0, 1, 11.3, -1755.07)" gradientUnits="userSpaceOnUse"><stop offset="0" stop-color="#452511"/><stop offset="0" stop-color="#462611"/><stop offset="0.06" stop-color="#4d2b14"/><stop offset="0.48" stop-color="#7a4924"/><stop offset="0.81" stop-color="#955b2d"/><stop offset="1" stop-color="#9f6231"/></linearGradient><linearGradient id="未命名的渐变_87" x1="1847.3" y1="2118.64" x2="1906.67" y2="2118.64" gradientTransform="matrix(-1, 0, 0, 1, 20.92, -1739.39)" gradientUnits="userSpaceOnUse"><stop offset="0" stop-color="#eacad9"/><stop offset="0.6" stop-color="#ece2e7"/><stop offset="1" stop-color="#edeced"/></linearGradient><clipPath id="clip-path"><rect class="cls-1" x="357.78" y="361.77" width="119.27" height="155.05"/></clipPath><linearGradient id="未命名的渐变_86-2" x1="-262.08" y1="2014.03" x2="-149.73" y2="2014.03" gradientTransform="matrix(-1, 0, 0, 1, 39.14, -1729.7)" xlink:href="#未命名的渐变_86"/><linearGradient id="未命名的渐变_87-2" x1="-191.08" y1="2099.85" x2="-132.13" y2="2099.85" gradientTransform="matrix(-1, 0, 0, 1, 48.41, -1737.37)" xlink:href="#未命名的渐变_87"/><clipPath id="clip-path-2"><rect class="cls-1" x="205.11" y="223.42" width="93.03" height="171.75"/></clipPath><linearGradient id="未命名的渐变_86-3" x1="1080.75" y1="1760.16" x2="1190.69" y2="1760.16" gradientTransform="matrix(-1, 0, 0, 1, 9.78, -1691.38)" xlink:href="#未命名的渐变_86"/><linearGradient id="未命名的渐变_87-3" x1="1159.13" y1="1766.51" x2="1216.86" y2="1766.51" gradientTransform="matrix(-1, 0, 0, 1, 27.78, -1692.85)" xlink:href="#未命名的渐变_87"/><clipPath id="clip-path-3"><rect class="cls-1" x="307.69" y="65.99" width="190.83" height="23.85"/></clipPath><linearGradient id="未命名的渐变_86-4" x1="754.9" y1="2550.18" x2="1004.92" y2="2550.18" gradientTransform="matrix(-1, 0, 0, 1, 13.22, -1808.25)" xlink:href="#未命名的渐变_86"/><linearGradient id="未命名的渐变_87-4" x1="886.76" y1="2714.51" x2="1018.04" y2="2714.51" gradientTransform="matrix(-1, 0, 0, 1, 7.74, -1823.06)" xlink:href="#未命名的渐变_87"/><clipPath id="clip-path-4"><rect class="cls-1" x="186.03" y="626.55" width="276.7" height="331.57"/></clipPath></defs><title>7</title><path class="cls-2" d="M420.36,371.47a63.65,63.65,0,0,1,4.21,7.55L420,408.7,430.2,391s42.67,78.49,47.76,89.2c5.62,11.94,15.8,18.09.53,34.59,0,0-19.14,14-36.52-21.6-15.8-32.31-38.46-67.25-55-83.06l23.35-.88Z"/><path class="cls-3" d="M388.93,413.09A52.33,52.33,0,0,0,384,408.7c-16.51-12.82-44.08-27-28.45-52.15,14.22-22.83,50.4-7.38,66.9,17.91l-9.83,36.35Z"/><g class="cls-4"><g class="cls-5"><path class="cls-6" d="M358.38,362.69s86.57,60.58,115.54,153.82h2.46C476.38,516.34,452.32,428,358.38,362.69Z"/></g></g><path class="cls-7" d="M475.5,515.11a1.11,1.11,0,0,0-1.4.53.53.53,0,0,0,0,.7c2.63,11.06,15.45,34.24,15.1,42.85,0,0,5.62,5.27,7.2-.18s-17.74-38.28-19.84-42.67h-.35A1.48,1.48,0,0,0,475.5,515.11Z"/><path class="cls-8" d="M257.93,308.43c-9.31,15.1-16.68,29.33-20.37,40.21l-10.71-20.72-38.1,7a68.17,68.17,0,0,1,4.92-6.85l28.62-8.43-20.19-1.76s52.33-71.64,60.05-80.78c8.43-10,9.48-21.95,30.91-15.1,0,0,20.72,11.24-3.86,42a413.12,413.12,0,0,0-26,36.35l-9.83-21.77-.88,1.23Z"/><path class="cls-9" d="M239.5,345.48a58.62,58.62,0,0,0-1.76,6.32c-4.57,20.19-5.62,51.1-34.77,47.59-26.69-3-27.92-42.14-12.29-67.61l36.88-6.5Z"/><g class="cls-4"><g class="cls-10"><path class="cls-6" d="M207.19,394.48S224.92,291,296.57,225.55l-1.05-2.11C295.34,223.27,226.15,282.27,207.19,394.48Z"/></g></g><path class="cls-7" d="M294.63,224.67a1.13,1.13,0,0,0,1.05,1.05.91.91,0,0,0,.7-.35c8.78-7,24.23-28.45,32.13-31.61,0,0,2.28-7.38-3.16-6.5s-26.87,32.13-30,35.82l.18.18A1.79,1.79,0,0,0,294.63,224.67Z"/><path class="cls-11" d="M406.49,88.93c-17.38-.18-33,.7-43.9,3l11.94-19.49L349.6,44a62.75,62.75,0,0,1,8.25.7l21.42,19.84-8.78-17.74s86.39,8.08,98,10c12.64,1.93,23.18-3,28.1,18.26,0,0,1.05,23-37.23,17.74-14-1.93-29.15-3.16-43.55-3.69L429.14,70l-1.58-.18Z"/><path class="cls-12" d="M336.43,80.86l-8.78,22.3c10.71-1.05,22.3-6.32,32.13-9.66a44.53,44.53,0,0,1,6.15-1.58l10.89-20.19L352.93,44c-29.32-.35-61.46,20.37-50.75,44.25,5.27,11.94,13.7,15.45,23,15.1,0,0,10.36-21.6,10.36-22.3"/><g class="cls-4"><g class="cls-13"><path class="cls-6" d="M308.68,89.29s95.88-36.88,186.84-9.66l1.23-1.93S412.46,49.07,308.68,89.29Z"/></g></g><path class="cls-7" d="M495.34,77.7A1,1,0,0,0,495,79.1l.53.53c10.36,3.86,36,6.15,42.67,11.06,0,0,7.38-1.76,3.86-6s-40.56-6.5-45.13-7.2l-.18.18A1.93,1.93,0,0,0,495.34,77.7Z"/><path class="cls-14" d="M310.79,793.79c27.39,28.45,50.22,56,63.39,77.61l13.52-50,86-3a136.41,136.41,0,0,0-14-12.64l-66.2-4.57,43-13.35S288.31,657.17,267.59,641c-23.18-17.91-31.08-43-74.28-18.09,0,0-39.69,34.24,28.62,89.56,25.11,20.37,50.75,43.37,73.93,66.38l11.06-52,2.63,2.28Z"/><path class="cls-15" d="M433.18,897.56l-23.35,49.34c-14.93-19.32-24.23-46.88-34.07-68.13a137.65,137.65,0,0,0-7-12.82l16.51-49.52,83.23-3.51c46.36,47.94,62,133.46,5.62,152.95-28.1,9.66-46.88,1.23-60.93-14.75,0,0,19.67-50.75,20.72-52.15"/><g class="cls-4"><g class="cls-16"><path class="cls-6" d="M462.33,956.57s-88-216.34-274.81-324.68l1.4-5.27C188.92,626.79,367.68,721.79,462.33,956.57Z"/></g></g><path class="cls-7" d="M191.21,629.25a2.44,2.44,0,0,1-1.93,3,2.16,2.16,0,0,1-1.76-.35v.18C165,621,121.14,581.84,102.71,578.68c0,0-8.43-14.93,3.86-15.45,12.47-.7,73.93,57.24,82.36,63.74l-.18.7A2,2,0,0,1,191.21,629.25Z"/></svg>