<svg id="图层_1" data-name="图层 1" xmlns="http://www.w3.org/2000/svg" xmlns:xlink="http://www.w3.org/1999/xlink" viewBox="0 0 640 1024"><defs><style>.cls-1{fill:none;}.cls-2{fill:url(#未命名的渐变_86);}.cls-3{fill:url(#未命名的渐变_87);}.cls-4{opacity:0.68;isolation:isolate;}.cls-5{clip-path:url(#clip-path);}.cls-6{fill:#442325;}.cls-7{fill:#f3f4f5;}.cls-8{fill:url(#未命名的渐变_86-2);}.cls-9{fill:url(#未命名的渐变_87-2);}.cls-10{clip-path:url(#clip-path-2);}.cls-11{fill:url(#未命名的渐变_86-3);}.cls-12{fill:url(#未命名的渐变_87-3);}.cls-13{clip-path:url(#clip-path-3);}</style><linearGradient id="未命名的渐变_86" x1="2261.81" y1="3675.43" x2="2399.19" y2="3675.43" gradientTransform="matrix(1, 0, 0, -1, 634.05, 4158.57)" gradientUnits="userSpaceOnUse"><stop offset="0" stop-color="#452511"/><stop offset="0" stop-color="#462611"/><stop offset="0.06" stop-color="#4d2b14"/><stop offset="0.48" stop-color="#7a4924"/><stop offset="0.81" stop-color="#955b2d"/><stop offset="1" stop-color="#9f6231"/></linearGradient><linearGradient id="未命名的渐变_87" x1="2346.87" y1="3580.5" x2="2419" y2="3580.5" gradientTransform="matrix(1, 0, 0, -1, 624.43, 4142.88)" gradientUnits="userSpaceOnUse"><stop offset="0" stop-color="#eacad9"/><stop offset="0.6" stop-color="#ece2e7"/><stop offset="1" stop-color="#edeced"/></linearGradient><clipPath id="clip-path"><rect class="cls-1" x="171.82" y="393.82" width="147.8" height="191.27"/></clipPath><linearGradient id="未命名的渐变_86-2" x1="-219.76" y1="3455.49" x2="-83.27" y2="3455.49" gradientTransform="matrix(1, 0, 0, -1, 606.21, 4133.2)" xlink:href="#未命名的渐变_86"/><linearGradient id="未命名的渐变_87-2" x1="-135.5" y1="3558.1" x2="-63.88" y2="3558.1" gradientTransform="matrix(1, 0, 0, -1, 596.94, 4140.86)" xlink:href="#未命名的渐变_87"/><clipPath id="clip-path-2"><rect class="cls-1" x="392.07" y="541.62" width="110.13" height="211.56"/></clipPath><linearGradient id="未命名的渐变_86-3" x1="1417.97" y1="3155.29" x2="1551.54" y2="3155.29" gradientTransform="matrix(1, 0, 0, -1, 635.56, 4094.87)" xlink:href="#未命名的渐变_86"/><linearGradient id="未命名的渐变_87-3" x1="1509.34" y1="3162.69" x2="1579.47" y2="3162.69" gradientTransform="matrix(1, 0, 0, -1, 617.57, 4096.34)" xlink:href="#未命名的渐变_87"/><clipPath id="clip-path-3"><rect class="cls-1" x="148.63" y="912.57" width="228.94" height="28.98"/></clipPath></defs><title>7</title><path class="cls-2" d="M241.69,571.84a77.33,77.33,0,0,1-5.12-9.17l5.55-36.05-12.37,21.55s-51.84-95.36-58-108.38c-6.83-14.51-19.2-22-.64-42,0,0,23.25-17.07,44.37,26.24,19.2,39.25,46.72,81.71,66.77,100.91L253.85,526Z"/><path class="cls-3" d="M279.88,521.28a63.57,63.57,0,0,0,6,5.33c20.05,15.57,53.55,32.85,34.56,63.36-17.28,27.73-61.23,9-81.28-21.76l11.95-44.16Z"/><g class="cls-4"><g class="cls-5"><path class="cls-6" d="M317,582.51s-105.18-73.6-140.38-186.88h-3C173.64,395.84,202.87,503.15,317,582.51Z"/></g></g><path class="cls-7" d="M174.71,397.33a1.34,1.34,0,0,0,1.71-.64.65.65,0,0,0,0-.85c-3.2-13.44-18.77-41.6-18.35-52.05,0,0-6.83-6.4-8.75.21s21.55,46.51,24.11,51.84h.43A1.8,1.8,0,0,0,174.71,397.33Z"/><path class="cls-8" d="M439,648.43c11.31-18.35,20.27-35.63,24.75-48.85l13,25.17,46.29-8.53a82.83,82.83,0,0,1-6,8.32l-34.77,10.24,24.53,2.13s-63.57,87-73,98.14c-10.24,12.16-11.52,26.67-37.55,18.35,0,0-25.17-13.65,4.69-51a502,502,0,0,0,31.57-44.16l11.95,26.45,1.07-1.49Z"/><path class="cls-9" d="M461.43,603.41a71.21,71.21,0,0,0,2.13-7.68c5.55-24.53,6.83-62.08,42.24-57.81,32.43,3.63,33.92,51.2,14.93,82.13l-44.8,7.89Z"/><g class="cls-4"><g class="cls-10"><path class="cls-6" d="M500.69,543.89S479.14,669.55,392.1,749.12l1.28,2.56C393.59,751.9,477.65,680.22,500.69,543.89Z"/></g></g><path class="cls-7" d="M394.45,750.19a1.38,1.38,0,0,0-1.28-1.28,1.11,1.11,0,0,0-.85.43c-10.67,8.53-29.44,34.56-39,38.4,0,0-2.77,9,3.84,7.89s32.64-39,36.48-43.52l-.21-.21A2.18,2.18,0,0,0,394.45,750.19Z"/><path class="cls-11" d="M258.55,915.1c21.12.21,40.11-.85,53.33-3.63l-14.51,23.68,30.29,34.56a76.23,76.23,0,0,1-10-.85l-26-24.11,10.67,21.55s-105-9.81-119-12.16c-15.36-2.35-28.16,3.63-34.13-22.19,0,0-1.28-27.95,45.23-21.55,17.07,2.35,35.41,3.84,52.91,4.48L231,938.14l1.92.21Z"/><path class="cls-12" d="M343.67,924.91l10.67-27.09c-13,1.28-27.09,7.68-39,11.73a54.11,54.11,0,0,1-7.47,1.92L294.6,936l29,33.71c35.63.43,74.67-24.75,61.65-53.76-6.4-14.51-16.64-18.77-27.95-18.35,0,0-12.59,26.24-12.59,27.09"/><g class="cls-4"><g class="cls-13"><path class="cls-6" d="M377.38,914.67s-116.48,44.8-227,11.73l-1.49,2.35S251.3,963.53,377.38,914.67Z"/></g></g><path class="cls-7" d="M150.6,928.75A1.15,1.15,0,0,0,151,927l-.64-.64c-12.59-4.69-43.73-7.47-51.84-13.44,0,0-9,2.13-4.69,7.25s49.28,7.89,54.83,8.75l.21-.21A2.34,2.34,0,0,0,150.6,928.75Z"/></svg>