<svg id="图层_1" data-name="图层 1" xmlns="http://www.w3.org/2000/svg" xmlns:xlink="http://www.w3.org/1999/xlink" viewBox="0 0 640 320"><defs><style>.cls-1,.cls-5{fill:none;}.cls-2{fill:#fff;}.cls-3{clip-path:url(#clip-path);}.cls-4{clip-path:url(#clip-path-2);}.cls-5{fill-rule:evenodd;}</style><clipPath id="clip-path"><rect class="cls-1" x="33.4" y="170.4" width="572.57" height="75.9"/></clipPath><clipPath id="clip-path-2"><rect class="cls-1" x="33.4" y="169.49" width="569.9" height="80.37"/></clipPath></defs><title>logo</title><path class="cls-2" d="M214,68.51c-1.1-1.47-2.07-2.93-3.17-4.27-5.61-7.32-4.64-16.35.73-22.82,3.54-4.4,7.69-8.06,13.42-9.52,4.88-1.22,9.76-1.1,14.28,1.46,3.66,2.08,6.83,6.23,3.91,11.59a1.73,1.73,0,0,0-.24.73c1.71.12,2.81-.61,3.42-2.56.85-2.57.49-5.13.24-7.69-.24-2-.37-3.79-.49-5.74-.12-4.64,1.83-8.42,5.13-11.72A35.69,35.69,0,0,1,273.43,7.61a35.31,35.31,0,0,1,20.87,3.9,37.35,37.35,0,0,1,9.15,7.2,12.19,12.19,0,0,1,3.05,7.69c.12,3.78.12,7.56.12,11.22q0,53.27-.12,106.53a25.87,25.87,0,0,1-.61,6.1c-1.22,5.49-4.52,8.54-10.13,8.91a17.62,17.62,0,0,1-2.56.12c-16.23,0-32.46.12-48.69.12-5.61,0-11.23,0-16.72-.12a200.31,200.31,0,0,1-27-1.83,19.22,19.22,0,0,1-10.37-5.24c-8.42-8.18-13.18-18.06-13.06-29.9.12-7.08,2.2-13.79,7.2-19,7.81-8.3,21.36-7.2,28.43,1.34,3.05,3.66,2.93,7.93.12,12.2-.37.61-.85,1.22-1.34,2,4.52-.49,8.66-4.76,9.4-9.52A12.49,12.49,0,0,0,213,95.72a54.52,54.52,0,0,0-6.35-1.83,25.74,25.74,0,0,1-10.74-5.49c-4.88-4.27-5-10.86-3.05-15.25a17.41,17.41,0,0,1,4.76-6.34c3.05-2.57,6.47-2.81,10.13-1.34,2.2.86,4,2.32,6.1,3.54a1.21,1.21,0,0,1,.37.12.71.71,0,0,0-.24-.61"/><path class="cls-2" d="M367.27,50.08c.61-1.22,1.34-2.56,2-3.78,1.83-3.42,3.91-6.59,7.2-8.91a13.86,13.86,0,0,1,9-2.68,37.32,37.32,0,0,1,10.37,1.46c4.64,1.59,8.18,4.52,11.47,7.93,5.25,5.74,9.15,12.08,10.86,19.77a17.85,17.85,0,0,1,.12,7.2,9.89,9.89,0,0,1-6.83,8.18c-2.56.85-5.25,1.58-7.93,2.56-5.13,1.71-9.76,4.52-12.33,9.28-2.93,5.37-2.07,9.64,2.2,13.3a7.26,7.26,0,0,0,6.71,1.46c-.24-.49-.73-.49-1.1-.73-2.93-1.34-3.91-3.42-3.3-6.59.61-3.42,2.81-5.61,5.49-7.57,5.13-3.66,11-4.63,17.08-4.15,12.69,1.1,22.58,10,24.41,24.53,1,7.44-3.66,12.81-11.1,13.18-5,.24-9.27,2.32-13.55,5.74,2.56-.73,4.76-1.34,6.83-1.83a15.93,15.93,0,0,1,7.93.37,10,10,0,0,1,7.44,9.76c0,6.22-1.46,12-6.71,15.86a16.42,16.42,0,0,1-9.4,3.18c-8.66.49-17.33.49-26,.73-22.33.49-44.79.37-67.12.49a27.61,27.61,0,0,1-5.49-.37c-5.61-1-9-5.13-9-11.11V99.75c0-21.72-.12-43.56-.12-65.41,0-2.81.12-5.62.12-8.42,0-5,2.2-8.79,6.22-11.72,13.18-9.4,31.73-10.37,46,1.71a52.34,52.34,0,0,1,4.64,4.39c3.66,3.79,3.54,10.74-.37,14-2.81,2.44-4,5.86-4.88,9.4-.49,2.32-1.1,4.27-.85,6.34m-.24.49h0c-.12,0-.24,0-.24.12a.12.12,0,0,0,.12.12c0-.12.12-.12.12-.25"/><path class="cls-2" d="M311.51,162.59a12,12,0,0,0,2.44,4.39c.24.25.49.61.85.73,2.2.61,2,2.32,2,4v67.12a10.23,10.23,0,0,0,1.71,5.73c7.44,10.86,16.47,20,28.19,26.36a43.41,43.41,0,0,0,16.11,4.88,12.64,12.64,0,0,1,9.88,6c1.1,1.71,2.32,3.17,3.42,4.88s1.1,3.18-.12,3.91-2.81.24-3.9-1.1c-.73-1-1.34-2-2-2.93A12,12,0,0,0,359.71,281c-2.44-.12-3.05.85-1.71,2.93,3.42,5.73,3.66,12.08,3.29,18.55v.36c-.37,2.08-1.22,3.05-2.44,3.18s-2.32-1.1-2.68-3.18c-.61-3.78-.73-7.56-1.59-11.35-1.1-4.51-2.93-8.66-7-11.23-.49-.24-.85-.49-1.34-.73-1.22-.49-2.2.12-2,1.47,1.34,7.2-1.1,13.91-2.81,20.75,0,.12-.12.36-.12.49-.61,2-1.34,2.69-2.68,2.44a3.51,3.51,0,0,1-2.56-3.66,59.35,59.35,0,0,1,1.71-10.37c1.22-4.76,1.34-9.28-1.46-13.55a20.71,20.71,0,0,0-3.42-3.91c-4.64-4.39-9.27-8.66-14.16-12.81-.24-.25-.49-.37-.73-.61-1.83-1.34-2.93-1-3.42,1.22-1,5.37-2.32,10.86-2.68,16.35-.37,5,.37,9.89,4.76,13.18.49.36,1,1,1.46,1.34,5.86,4.76,7.44,11.11,6.47,18.31-.12,1-.37,1.83-1.59,2.07a2.11,2.11,0,0,1-2.56-1.34,20.86,20.86,0,0,1-1.22-6.1A13.72,13.72,0,0,0,313.7,295c-2-1.34-3.29-.85-3.54,1.59a33.53,33.53,0,0,1-5.74,16.84,5,5,0,0,1-2,2,2.42,2.42,0,0,1-2.56.12,2.81,2.81,0,0,1-1-2.69,12.74,12.74,0,0,1,1-3.05c4.27-8.91,5.25-18.31,4.39-28.07-.49-4.52.37-8.79,1.22-13.18.37-1.71.73-3.3,1-5,.37-2.32-.73-3.17-2.93-2.32a11.55,11.55,0,0,0-3.29,2.08,141.94,141.94,0,0,0-14.4,15.25c-4.76,6.1-5.86,12.81-3.78,20.26l2.2,7.69a9.42,9.42,0,0,1,.24,1.83,2.13,2.13,0,0,1-1.34,2.07,2,2,0,0,1-2.32-.24,3.6,3.6,0,0,1-1.22-1.47c-1.71-4.39-3.66-8.66-4.64-13.3a20.61,20.61,0,0,1,1.22-12.69c.37-1,1.1-2.07.12-2.93s-2,0-2.93.61c-5,2.93-7.81,7.32-9,12.93a30.62,30.62,0,0,1-.85,3.18,1.72,1.72,0,0,1-1.71,1.34,2,2,0,0,1-1.83-1.22c-1.1-2-.85-4-.49-6a17.18,17.18,0,0,1,5.37-10.37l.85-.85c1.34-1.47,1.1-2.44-1-2.56a34.56,34.56,0,0,0-11.23.73,8.89,8.89,0,0,0-4.76,3.66,19.06,19.06,0,0,1-2,2.44c-.61.73-1.22,1.34-2.32.73a2.39,2.39,0,0,1-1.46-2.68,11.46,11.46,0,0,1,.73-1.83c2.68-5.49,7.32-7.69,13.3-8.18,4.39-.24,8.79.12,13.06-.73,12.69-2.69,22.82-9.4,30.75-19.65,5-6.47,4.88-6.47,4.88-14.64V170.89a2.46,2.46,0,0,1,1.46-2.68c1.83-.86,2.68-2.69,3.42-4.52.37-.49.37-.86.85-1.1"/><path class="cls-2" d="M214,68.51c.12.12.24.24.12.36a1.23,1.23,0,0,0-.37-.12l.24-.24"/><path class="cls-2" d="M367,50.57c0,.12-.12.12-.12.25l-.12-.12c0-.12.12-.12.24-.12h0"/><g class="cls-3"><g class="cls-4"><path class="cls-2" d="M81.11,217.87v26.36c0,1.46-.37,1.71-1.71,1.71-2.44-.12-5-.12-7.57,0-1.1,0-1.46-.25-1.46-1.34V195.91a29.65,29.65,0,0,0-.24-5.73,8.8,8.8,0,0,0-7.44-7.32,33.92,33.92,0,0,0-11.1,0A8.62,8.62,0,0,0,44,191c-.24,2.93-.12,5.74-.12,8.67,0,14.89,0,29.9.12,44.78,0,1.22-.24,1.71-1.59,1.71a71.27,71.27,0,0,0-7.2,0c-1.46.12-1.83-.24-1.83-1.83V197.86c0-2.57-.12-5,.12-7.57,1.1-9.52,6.59-15.62,15.86-17.82,6.59-1.47,13.18-1.34,19.52,1.34a19,19,0,0,1,5.37,3.42c.85.85,1.46.73,2.44,0,9.64-7.08,20-7.45,30.51-2.69,7.08,3.3,10.62,9.4,10.62,17.09.12,17.7,0,35.27,0,53,0,1-.24,1.47-1.34,1.47q-3.84-.18-7.69,0c-1.34,0-1.46-.37-1.46-1.59.12-17.09.12-34.29.12-51.37,0-5.49-2.56-9-7.32-10.13l-2.2-.36a44.42,44.42,0,0,0-9,.12c-4.88.73-7.81,3.91-7.93,8.91-.12,5.62,0,11.23,0,16.72v9.52"/></g><g class="cls-4"><path class="cls-2" d="M128.46,199.93v-26c0-3.05-.24-2.44,2.44-2.56,2.2,0,4.39.12,6.59,0,1.46-.12,1.71.37,1.71,1.71v48.44a23.29,23.29,0,0,0,.61,5.86c1.22,4.76,4,7.32,8.79,7.93a25.55,25.55,0,0,0,8.05-.25c6-1.1,8.79-4.51,8.79-10.62v-51c0-1.58.37-2.07,2-2q3.66.18,7.32,0c1.22,0,1.71.25,1.71,1.59-.12,3.05,0,6.1,0,9,0,14,.12,28.07,0,42.1,0,6.22-1.71,11.84-6.47,16.23a21.56,21.56,0,0,1-11.47,5.25,31.81,31.81,0,0,1-14.4-.49c-10-2.68-15.62-10.25-15.74-21.11C128.34,216.16,128.34,208,128.46,199.93Z"/></g><g class="cls-4"><path class="cls-2" d="M223.89,245.94H208.27c-1.1,0-1.34-.37-1.34-1.34v-7.69c0-1,.12-1.46,1.22-1.46.61,0,1.34-.12,2.07-.12h21.72c7.69,0,10.74-3.05,10.74-10.74,0-6.71-3.17-10.13-10-10.74a58.41,58.41,0,0,1-10.25-1.22c-9.52-2.07-14.89-8.78-15.25-18.43a32.88,32.88,0,0,1,1.1-9.76c2-7.93,7.81-12.69,16.23-13.18,9-.61,18.18-.12,27.21-.25,1.1,0,1.59.49,1.46,1.59-.12,2.56-.12,5,0,7.57,0,1.22-.37,1.34-1.46,1.34H228.4c-5.61,0-9.76,3.05-11.1,8.18a10.52,10.52,0,0,0,9.76,13.3,66.17,66.17,0,0,1,11,1.22c9.15,2.32,15,9.64,15.13,19,.12,5.37-.73,10.62-4,15.13a16.42,16.42,0,0,1-12.33,7.08,84.46,84.46,0,0,1-12.94.49"/></g><g class="cls-4"><path class="cls-2" d="M477.35,245.94H463.56c-1.1,0-1.59-.25-1.46-1.47q.18-3.66,0-7.32c0-1.34.49-1.71,1.59-1.59h23.19a17.76,17.76,0,0,0,4.39-.37,7.39,7.39,0,0,0,6.1-6,17.86,17.86,0,0,0,.37-6.22c-.61-5.49-3.78-8.42-9.4-8.91-4-.37-8.05-.37-12-1.47-7.93-2.19-12.69-7.2-13.91-15.38a29.66,29.66,0,0,1,1.83-15.62c2.81-6.59,8.18-9.52,15-10,9.15-.61,18.3-.24,27.46-.24,1.1,0,1.59.49,1.46,1.59-.12,2.56-.12,5,0,7.56,0,1.1-.37,1.34-1.46,1.34H483.2c-5.86,0-10.13,3.41-11.1,8.78a10.35,10.35,0,0,0,9.64,12.57,64.46,64.46,0,0,1,9.76,1c11.1,2.2,17.69,11.23,16.47,22.45-.49,4.76-1.46,9.28-4.64,13.06a16.77,16.77,0,0,1-11.84,6.23c-4.52.24-9.4,0-14.16,0"/></g><g class="cls-4"><path class="cls-2" d="M326.88,208.6V172.72c0-1-.12-1.59,1.34-1.59,7.44.12,14.77,0,22.21.12a42.07,42.07,0,0,1,7.81.61c8.42,1.58,13.91,7.56,14.77,16.11a23.7,23.7,0,0,1-.49,9.28c-2.07,7.2-7.2,10.86-14.16,12.32a31.38,31.38,0,0,1-8.3.49c-1,0-1.22-.36-1.22-1.34.12-2.56,0-5.13,0-7.69,0-.86.24-1.22,1.1-1.22,2.07-.12,4.27-.37,6.35-.61,3.78-.49,6-2.81,6.22-6.71a13.32,13.32,0,0,0-.24-4.39,7.67,7.67,0,0,0-7.81-6.47c-5.13-.12-10.37,0-15.5-.12-1.34,0-1.71.37-1.71,1.71v60.89c0,1.1-.24,1.59-1.46,1.47q-3.66-.18-7.32,0c-1.34,0-1.83-.24-1.83-1.83.24-11.47.24-23.31.24-35.14"/></g><g class="cls-4"><path class="cls-2" d="M285.15,213.84v30.88c0,1.22-.37,1.58-1.59,1.58q-3.66-.18-7.32,0c-1.46.12-1.71-.36-1.71-1.71V183c0-1-.37-1.34-1.34-1.34h-8.66c-1,0-1.22-.24-1.22-1.22.12-2.68.12-5.49,0-8.18,0-1,.37-1.22,1.22-1.22h30.39c1.1,0,1.46.37,1.34,1.47,0,2.56-.12,5,0,7.57,0,1.1-.24,1.46-1.34,1.46-2.56-.12-5.25,0-7.81,0-2.32,0-2.07-.24-2.07,2,.12,10.13.12,20.26.12,30.38"/></g><g class="cls-4"><path class="cls-2" d="M529.58,213.84V183.34c0-1.22-.24-1.71-1.59-1.71-2.68.12-5.49,0-8.18,0-1,0-1.46-.12-1.34-1.22q.18-4,0-8.05c0-1.1.37-1.34,1.34-1.34h30.26c1,0,1.34.25,1.34,1.34-.12,2.56,0,5.24,0,7.81,0,1-.24,1.22-1.22,1.22-2.68,0-5.49.12-8.18,0-1.46-.12-2,.24-2,1.83v61.87c0,.86-.24,1.1-1.1,1.1h-8.42c-1.34,0-1.1-.85-1.1-1.59.12-10.13.12-20.38.12-30.75"/></g><g class="cls-4"><path class="cls-2" d="M186.67,208.47V173c0-1.34.37-1.71,1.71-1.59a68.88,68.88,0,0,0,7.08,0c1.22,0,1.59.37,1.59,1.59v71.39c0,1.46-.37,1.83-1.71,1.71a68.88,68.88,0,0,0-7.08,0c-1.22,0-1.46-.37-1.46-1.47-.12-12.08-.12-24-.12-36.12"/></g><g class="cls-4"><path class="cls-2" d="M452,208.84V244c0,2.32.24,2.08-2.07,2.08h-6c-2.07,0-2.07,0-2.07-2.08V172.84c0-1.1.24-1.46,1.34-1.46a68.87,68.87,0,0,0,7.08,0c1.46-.12,1.83.24,1.83,1.83-.24,11.84-.12,23.67-.12,35.63"/></g><g class="cls-4"><path class="cls-2" d="M383.26,199.93v-26c0-3.05-.24-2.44,2.44-2.56,2.2,0,4.39.12,6.59,0,1.46-.12,1.71.37,1.71,1.71v48.44a23.28,23.28,0,0,0,.61,5.86c1.22,4.76,4,7.32,8.79,7.93a25.56,25.56,0,0,0,8.05-.25c6-1.1,8.79-4.51,8.79-10.62v-51c0-1.58.37-2.07,2-2q3.66.18,7.32,0c1.22,0,1.71.25,1.71,1.59-.12,3.05,0,6.1,0,9,0,14,.12,28.07,0,42.1,0,6.22-1.71,11.84-6.47,16.23a21.56,21.56,0,0,1-11.47,5.25,31.81,31.81,0,0,1-14.4-.49c-10-2.68-15.62-10.25-15.74-21.11C383.14,216.16,383.14,208,383.26,199.93Z"/></g><g class="cls-4"><path class="cls-2" d="M559.72,208.35c0-6.34-.24-12.57,0-18.92.37-9.88,5.61-15.86,15.5-18.18a31.81,31.81,0,0,1,16.23.24c8.3,2.56,14.16,8.91,14.52,17.33v38.56c-.37,10.37-8.54,17.82-19.16,18.55a49.27,49.27,0,0,1-11.23-.61c-9.88-1.83-15.5-8.3-15.86-18.18-.24-6.23,0-12.45,0-18.79m10.86-19.89a26.52,26.52,0,0,0-.24,4.39V223c0,9.89,2.07,12.08,12.33,12.81,8.18.61,13.06-3.79,13.06-11.72V208.35c0-5.37.12-10.86,0-16.23,0-10.25-8.79-11-12.2-11-9.64,0-12.57,4-12.94,7.32"/></g></g><polyline class="cls-5" points="33.4 315.62 605.97 315.62 605.97 7.25"/></svg>